<?xml version="1.0" encoding="UTF-8" standalone="no"?>
<svg xmlns:rdf="http://www.w3.org/1999/02/22-rdf-syntax-ns#" xmlns="http://www.w3.org/2000/svg" height="30" width="30" version="1.1" xmlns:cc="http://creativecommons.org/ns#" xmlns:xlink="http://www.w3.org/1999/xlink" viewBox="0 0 29.999999 29.999999" xmlns:dc="http://purl.org/dc/elements/1.1/">
 <g transform="translate(-269.52 -205.59)">
  <g fill-rule="evenodd" transform="matrix(.11896 0 0 .11896 250.19 207.57)">
   <path d="m307.62 48.332h-38.099l19.05-28.222 19.05 28.222z" fill="#000000"/>
   <path d="m307.62-16.584h-38.099l19.05 28.222 19.05-28.222z" fill="#000000"/>
   <rect height="54.926" width="4.32" y="5.3514" x="286.41" fill="#000000"/>
   <path d="m157.41 216.96h-14.844v55.67c.58413.53761 1.2063 1.0261 1.9492 1.4551 1.3083.75534 2.7216 1.2139 4.1328 1.3887 1.4112.17482 2.8127.0657 4.166-.29688 1.3533-.36261 2.668-.99458 3.8027-1.8516.31439-.23743.50325-.61931.79297-.89258v-55.473z" transform="translate(138.57 -40.495)" stroke="#000000" stroke-width="1.058" fill="#ffff00"/>
   <path d="m142.57 155.89v61.072h14.844v-61.072h-14.844z" transform="translate(138.57 -40.495)" stroke="#000000" stroke-width="1.058" fill="#000000"/>
   <path d="m142.57 155.89h14.844v-58.592h-14.844v58.592z" transform="translate(138.57 -40.495)" stroke="#000000" stroke-width="1.058" fill="#ffff00"/>
  </g>
 </g>
</svg>
