<?xml version="1.0" encoding="UTF-8" standalone="no"?>
<svg xmlns:rdf="http://www.w3.org/1999/02/22-rdf-syntax-ns#" xmlns="http://www.w3.org/2000/svg" height="30" viewBox="0 0 30.001168 29.999814" width="30" version="1.1" xmlns:cc="http://creativecommons.org/ns#" xmlns:dc="http://purl.org/dc/elements/1.1/">
 <g transform="matrix(.11897 0 0 .11897 -11.852 -34.738)">
  <path fill-rule="evenodd" fill="#000000" d="m244.76 356.9h-38.099l19.05-28.222 19.05 28.222z"/>
  <path fill-rule="evenodd" fill="#000000" d="m244.76 320.21h-38.099l19.05-28.222 19.05 28.222z"/>
  <rect fill-rule="evenodd" height="54.926" width="4.32" y="313.92" x="223.55" fill="#000000"/>
  <path d="m26.465 162.54h-14.846v86.18c.584.54 1.208 1.03 1.951 1.46 1.309.76 2.722 1.21 4.133 1.39 1.411.17 2.813.06 4.166-.3s2.666-.99 3.801-1.85c.314-.24.505-.62.795-.89v-85.99z" fill-rule="even-odd" transform="translate(206.66,291.99)" stroke="#000000" stroke-width="1.058" fill="#ffff00"/>
  <path d="m11.619 73.391v89.149h14.846v-89.149h-14.846z" fill-rule="even-odd" transform="translate(206.66,291.99)" stroke="#000000" stroke-width="1.058" fill="#000000"/>
 </g>
</svg>
