<?xml version="1.0" encoding="UTF-8" standalone="no"?>
<svg xmlns:rdf="http://www.w3.org/1999/02/22-rdf-syntax-ns#" xmlns="http://www.w3.org/2000/svg" height="30" viewBox="0 0 30.001168 29.999814" width="30" version="1.1" xmlns:cc="http://creativecommons.org/ns#" xmlns:dc="http://purl.org/dc/elements/1.1/">
 <g transform="matrix(.11897 0 0 .11897 -2.8448 -92.352)">
  <path fill-rule="evenodd" fill="#000000" d="m169.05 812.97h-38.099l19.05 28.22 19.05-28.22z"/>
  <path fill-rule="evenodd" fill="#000000" d="m169.05 776.27h-38.099l19.05 28.22 19.05-28.22z"/>
  <rect fill-rule="evenodd" height="54.926" width="4.32" y="798.21" x="147.84" fill="#000000"/>
  <path d="m157.41 186.43h-14.84v86.2c.58.54 1.21 1.03 1.95 1.46 1.31.76 2.72 1.21 4.13 1.39 1.41.17 2.82.06 4.17-.3s2.67-.99 3.8-1.85c.32-.24.5-.62.79-.89v-86.01z" fill-rule="even-odd" transform="translate(0,752.36)" stroke="#000000" stroke-width="1.058" fill="#000000"/>
  <path d="m142.57 97.301v89.129h14.84v-89.129h-14.84z" fill-rule="even-odd" transform="translate(0,752.36)" stroke="#000000" stroke-width="1.058" fill="#ffff00"/>
 </g>
</svg>
