<?xml version="1.0" encoding="UTF-8" standalone="no"?>
<svg xmlns:rdf="http://www.w3.org/1999/02/22-rdf-syntax-ns#" xmlns="http://www.w3.org/2000/svg" height="30" width="30" version="1.1" xmlns:cc="http://creativecommons.org/ns#" xmlns:dc="http://purl.org/dc/elements/1.1/" viewBox="0 0 30.000001 30.000001">
 <g fill-rule="evenodd" transform="matrix(.11896 0 0 .11896 -2.8447 -92.348)">
  <path fill="#000000" d="m169.05 812.97h-38.099l19.05 28.22 19.05-28.22z"/>
  <path fill="#000000" d="m169.05 804.49h-38.099l19.05-28.22 19.05 28.22z"/>
  <rect height="54.926" width="4.32" y="798.21" x="147.84" fill="#000000"/>
  <path d="m157.41 216.91h-14.84v55.72c.58.54 1.21 1.03 1.95 1.46 1.31.76 2.72 1.21 4.13 1.39 1.41.17 2.82.06 4.17-.3s2.67-.99 3.8-1.85c.32-.24.5-.62.79-.89v-55.53z" transform="translate(0,752.36)" stroke="#000000" stroke-width="1.058" fill="#000000"/>
  <path d="m157.41 216.41h-14.84v.5h14.84v-.5z" transform="translate(0,752.36)" stroke="#000000" stroke-width="1.058" fill="#000000"/>
  <path d="m157.41 156.05h-14.84v60.36h14.84v-60.36z" transform="translate(0,752.36)" stroke="#000000" stroke-width="1.058" fill="#ffff00"/>
  <path d="m142.57 97.301v58.749h14.84v-58.749h-14.84z" transform="translate(0,752.36)" stroke="#000000" stroke-width="1.058" fill="#000000"/>
 </g>
</svg>
