<?xml version="1.0" encoding="UTF-8" standalone="no"?>
<svg xmlns:rdf="http://www.w3.org/1999/02/22-rdf-syntax-ns#" xmlns="http://www.w3.org/2000/svg" height="15" width="15" version="1.0" xmlns:cc="http://creativecommons.org/ns#" xmlns:dc="http://purl.org/dc/elements/1.1/">
 <title>Q81: Black beacon</title>
 <path d="m6.0158 0v11.265c-.29655.28687-.51265.65609-.60892 1.071h-1.4679l-.021747.98405h1.4897c.2238.963 1.0843 1.68 2.1147 1.68 1.0308 0 1.8913-.71687 2.1149-1.68l1.4462-.0054v-.98405l-1.4462.0054c-.10207-.43998-.33865-.82659-.66328-1.12l.0001-11.216h-2.9576zm1.506 11.52c.72026 0 1.3048.58456 1.3048 1.3048 0 .72026-.58456 1.3048-1.3048 1.3048-.72026 0-1.3048-.58456-1.3048-1.3048 0-.72026.58456-1.3048 1.3048-1.3048z" fill-rule="evenodd" fill="#000407"/>
</svg>
