<?xml version="1.0" encoding="UTF-8" standalone="no"?>
<svg xmlns:rdf="http://www.w3.org/1999/02/22-rdf-syntax-ns#" xmlns="http://www.w3.org/2000/svg" height="30" width="30" version="1.1" xmlns:cc="http://creativecommons.org/ns#" xmlns:dc="http://purl.org/dc/elements/1.1/">
 <g transform="matrix(.26667 0 0 .26667 -2.0667 -1.6)">
  <path d="m12 116h104" stroke="#000000" stroke-width="5" fill="none"/>
  <path d="m87 115h-46l12-79h22l12 79z" stroke="#000000" stroke-width="3" fill="#ffffff"/>
  <path fill="#000000" d="m54 37-2 14h25l-2-14h-21z"/>
  <path fill="#000000" d="m50 63h28l2 12h-32l2-12z"/>
  <path fill="#000000" d="m45 89h38l2 11h-42l2-11z"/>
  <path style="color:#000000" d="m72 24a8 8 0 1 1 -16 0 8 8 0 1 1 16 0z" fill-rule="evenodd" stroke="#000000" stroke-width="2" fill="#ffffff"/>
  <path stroke-width="1.25" fill="#000000" d="m53 13v-2l11-3 11 3v2h-22z"/>
 </g>
</svg>
