<?xml version="1.0" encoding="UTF-8" standalone="no"?>
<svg xmlns:rdf="http://www.w3.org/1999/02/22-rdf-syntax-ns#" xmlns="http://www.w3.org/2000/svg" height="30" width="30" version="1.1" xmlns:cc="http://creativecommons.org/ns#" xmlns:dc="http://purl.org/dc/elements/1.1/">
 <g transform="matrix(.24657 0 0 .24657 -.78963 -.75303)">
  <path d="m73.897 17.559 52.738-9.2648.00001 40.039-52.916-8.3255.17817-22.449z" fill-rule="evenodd" fill="#ffe700"/>
  <path d="m54.179 17.471-52.738-9.2652-.0004 40.039 52.916-8.325-.178-22.449z" fill-rule="evenodd" fill="#ffe700"/>
  <rect height="7.3353" width="109.35" y="117.39" x="9.3228" fill="#000000"/>
  <path d="m41.953 118.75 10.835-79.058h22.173l11.087 78.786-44.094.27167z" fill-rule="evenodd" stroke="#000000" stroke-width="2" fill="#ffffff"/>
  <rect height="22.413" width="22.173" stroke="#000000" y="17.276" x="52.913" stroke-width="2" fill="#ffe700"/>
  <path d="m45.102 17.14 37.796.136-18.772-13.584-19.024 13.448z" fill-rule="evenodd" stroke="#000000" stroke-width="1.0384px" fill="#000000"/>
  <path d="m71.267 33.214a6.9486 6.4141 0 1 1 -13.897 0 6.9486 6.4141 0 1 1 13.897 0z" transform="matrix(1 0 0 1.0782 -.31888 -7.5822)" stroke="#000000" fill="#000000"/>
  <path d="m44.847 97.739h38.306l3.207 21.516-44.72-.19211 3.207-21.324z" fill-rule="evenodd" fill="#000000"/>
  <path d="m50.257 57.088h26.982l3.1415 21.38-32.761-.05627 2.6375-21.324z" fill-rule="evenodd" fill="#000000"/>
  <rect height="3.2658" width="40.088" y="38.763" x="43.956" fill="#000000"/>
 </g>
</svg>
