<?xml version="1.0" encoding="UTF-8" standalone="no"?>
<svg xmlns:rdf="http://www.w3.org/1999/02/22-rdf-syntax-ns#" xmlns="http://www.w3.org/2000/svg" height="15" width="15" version="1.1" xmlns:cc="http://creativecommons.org/ns#" xmlns:dc="http://purl.org/dc/elements/1.1/">
 <g transform="translate(312.77 -1811)">
  <g transform="matrix(.30113 0 0 .30113 -402.39 1896.3)">
   <path d="m322.53-283.08c-13.752 0-24.906 11.154-24.906 24.906s11.154 24.906 24.906 24.906 24.906-11.154 24.906-24.906-11.154-24.906-24.906-24.906z" fill="#ffffff"/>
   <path d="m314.53-268.41c-2.0794.097-4.3698.71583-7 2.1875v4.625c10.72-9.1994 18.749 7.5311 30-1.3125v-5c-9.1637 8.4122-13.989-.92039-23-.5zm0 11.375c-2.0794.097-4.3698.71583-7 2.1875v4.625c10.72-9.1994 18.749 7.5311 30-1.3125v-5c-9.1637 8.4122-13.989-.92039-23-.5z" fill="#000000"/>
   <path d="m322.53-283.08c-13.752 0-24.906 11.154-24.906 24.906s11.154 24.906 24.906 24.906 24.906-11.154 24.906-24.906-11.154-24.906-24.906-24.906zm-.25 5.2188c11.002 0 19.906 8.9358 19.906 19.938 0 4.5938-1.5781 8.7893-4.1875 12.156l-27.906-27.906c3.3716-2.6111 7.5982-4.1875 12.188-4.1875zm-15.312 7.1875 28.062 28.062c-3.4526 2.8811-7.8969 4.5938-12.75 4.5938-11.002 0-19.938-8.9046-19.938-19.906 0-4.8452 1.7456-9.293 4.625-12.75z" fill="#ff0000"/>
  </g>
 </g>
</svg>
