<?xml version="1.0" encoding="UTF-8" standalone="no"?>
<svg xmlns:rdf="http://www.w3.org/1999/02/22-rdf-syntax-ns#" xmlns="http://www.w3.org/2000/svg" height="15" width="15" version="1.0" xmlns:cc="http://creativecommons.org/ns#" xmlns:dc="http://purl.org/dc/elements/1.1/">
 <title>E30: Radar Tower</title>
 <path d="m6.06.88044v.00275h-.33258l-.87955 12.77h-1.0692v.49750h2.6112c.1133.487.5483.850 1.0693.850.52113 0 .95616-.36242 1.0692-.84932h2.6249v-.0055-0.492h-1.1489l-.87405-12.77h-.47551v-.00275h-2.5947zm.32983.51674h2.0807l.11544 1.6794h-2.3116l.11544-1.6794zm-.15667 2.2621h2.3913l.68440 9.9939h-.78060c-.11305-.48690-.54808-.84932-1.0692-.84932-.52096.0000010-.95598.36267-1.0692.84932h-.84382l.68715-9.9939zm1.2259 9.5816c.36413 0 .65966.29553.65966.65966 0 .36414-.29553.65966-.65966.65966-.36414 0-.65966-.29553-.65966-.65966s.29553-.65966.65966-.65966z" fill-rule="evenodd" fill="#000407"/>
 <path d="m3.229.053111c-.29107 1.4557-.33585 2.8219 0 4.2328h.44802c-.26868-1.4109-.35824-2.7323 0-4.2328h-.44802zm1.1627.78335c-.31346.91803-.38063 1.8585 0 2.7541h0.492c-.38063-.91803-.31346-1.7689 0-2.7541h-0.492z" fill="#000000"/>
 <path d="m11.771 0c.29107 1.4557.33585 2.8219 0 4.2328h-.44802c.269-1.4109.358-2.7323 0-4.2328h.44802zm-1.1627.78335c.31346.91803.38063 1.8585 0 2.7541h-.492c.38063-.91803.31346-1.7689 0-2.7541h.492z" fill="#000000"/>
</svg>
